<svg id="Capa_1" enable-background="new 0 0 512 512" height="512" viewBox="0 0 512 512" width="512" xmlns="http://www.w3.org/2000/svg"><g><path d="m504.485 95.297h-69.068v-18.742c.001-42.213-34.347-76.555-76.566-76.555-12.418 0-24.144 2.99-34.526 8.259-10.382-5.269-22.109-8.259-34.527-8.259-42.219 0-76.567 34.342-76.567 76.555v18.742h-80.375c-4.15 0-7.515 3.364-7.515 7.515v68.075c-4.711-1.384-9.691-2.133-14.844-2.133-29.128 0-52.825 23.694-52.825 52.818v9.714h-50.157c-4.151-.001-7.515 3.364-7.515 7.514v49.819c0 4.15 3.364 7.515 7.515 7.515 4.15 0 7.515-3.365 7.515-7.515v-42.304h42.642v13.633c-4.093 2.53-6.834 7.045-6.834 12.199 0 7.911 6.437 14.348 14.349 14.348s14.348-6.436 14.348-14.348c0-5.154-2.741-9.669-6.834-12.199v-13.633h75.592v13.633c-4.093 2.53-6.834 7.045-6.834 12.199 0 7.911 6.437 14.348 14.349 14.348 7.911 0 14.348-6.436 14.348-14.348 0-5.154-2.741-9.669-6.834-12.199v-13.633h42.642v245.109c0 3.058-2.488 5.546-5.546 5.547h-.002-.001-179.839c-3.059 0-5.547-2.488-5.547-5.547v-172.746c0-4.15-3.365-7.515-7.515-7.515s-7.515 3.365-7.515 7.515v172.746c.001 11.346 9.231 20.576 20.577 20.576h179.84.001 37.89 188.526.001 57.743c15.122 0 27.423-12.3 27.423-27.419v-381.77c0-4.15-3.364-7.514-7.515-7.514zm-401.503 135.988h-30.281v-9.714c0-20.837 16.955-37.788 37.796-37.788 2.626 0 5.189.271 7.666.783-9.38 9.537-15.18 22.605-15.18 37.006v9.713zm22.359 0h-7.33v-9.714c0-8.346 2.728-16.063 7.33-22.323zm233.51-216.256c33.931 0 61.537 27.6 61.537 61.526v18.742h-54.022v-18.742c0-23.348-10.52-44.274-27.056-58.327 6.145-2.063 12.711-3.199 19.541-3.199zm-34.526 10.624c16.29 11.08 27.012 29.761 27.012 50.901v18.742h-54.024v-18.741c0-21.14 10.722-39.821 27.012-50.902zm-96.064 50.902c0-33.925 27.606-61.526 61.538-61.526 6.83 0 13.397 1.135 19.541 3.198-16.536 14.053-27.056 34.98-27.056 58.327v18.742h-54.023zm-79.968 154.73h-7.923v-32.818c4.959 6.393 7.923 14.406 7.923 23.103zm45.311 0h-30.281v-9.714c0-14.401-5.8-27.468-15.18-37.006 2.476-.512 5.04-.783 7.666-.783 20.841 0 37.796 16.952 37.796 37.788v9.715zm303.367 253.296c0 6.832-5.56 12.389-12.393 12.389h-33.294c1.896-3.725 2.972-7.933 2.972-12.391v-273.311c0-4.15-3.364-7.515-7.515-7.515s-7.515 3.365-7.515 7.515v273.312c0 6.832-5.559 12.391-12.391 12.391h-168.73c.496-1.767.781-3.622.781-5.546v-65.474c0-4.15-3.365-7.515-7.515-7.515s-7.515 3.365-7.515 7.515v65.474c0 3.058-2.489 5.545-5.547 5.546h-.001c-.001 0-.001 0-.001 0h-18.092c.496-1.768.781-3.623.781-5.547v-245.109h22.861v149.578c0 4.15 3.364 7.515 7.515 7.515 4.15 0 7.514-3.365 7.514-7.515v-157.093c0-4.15-3.364-7.515-7.514-7.515h-42.737v-9.714c0-29.124-23.697-52.818-52.825-52.818-5.372 0-10.55.823-15.437 2.322v-60.749h72.861v31.105c-4.093 2.53-6.834 7.044-6.834 12.199 0 7.911 6.437 14.348 14.349 14.348s14.348-6.436 14.348-14.348c0-5.154-2.741-9.669-6.834-12.199v-31.105h123.076v31.105c-4.093 2.53-6.834 7.044-6.834 12.199 0 7.911 6.436 14.348 14.348 14.348s14.348-6.436 14.348-14.348c0-5.154-2.741-9.669-6.834-12.199v-31.105h72.86v70.883c0 4.15 3.364 7.515 7.515 7.515s7.515-3.365 7.515-7.515v-70.883h42.715v374.255z"/></g></svg>